<svg width="1306" height="913" viewBox="0 0 1306 913" fill="none" xmlns="http://www.w3.org/2000/svg">
<path d="M620 643C620 643 590 501 540 477C490 453 494.846 480.257 439 430C398.906 393.919 519.48 286.751 480 250C426.895 200.565 300 99 300 99" stroke="black"/>
<path d="M825 912.5C822.6 912.5 777.667 891.5 755.501 881C733.334 870.5 697.365 900.536 682 872C668 846 664 728 685 699C724.128 644.967 815.928 622.562 855 645.263C997 727.763 1093 692.237 1155 677C1255 652.424 1305 581 1305 581" stroke="black"/>
<path d="M726 627C726 627 765.753 589.485 838 560M838 560C941.684 550.237 1055.72 616.632 1147 566.5C1193.02 541.226 1249.5 479.5 1249.5 479.5M838 560C901.46 504.741 946.449 507.286 1018 463C1086.3 420.723 1233.5 370 1233.5 370" stroke="black"/>
<path d="M692 641C692 641 701.007 591.49 759 521M759 521C829.49 482.729 928.616 412.473 1005 388C1054.42 372.167 990.826 332.842 1031 300C1062 274.66 1169 192 1169 192M759 521C787.508 462.226 750.582 393.317 791 342C844.468 274.113 975 92 975 92" stroke="black"/>
<path d="M659 617C659 617 595.52 428.116 618 360C648.1 268.795 637.547 340.478 688 269C729.509 210.194 665 1 665 1" stroke="black"/>
<path d="M487 901C487 901 517.849 867.427 543.5 867.5C564.639 867.56 571.562 887.589 592.5 890.5C648 898.216 665.961 746.563 592.5 705C554.5 683.5 578.5 651 524 645M524 645C457.806 654.958 401.908 655.269 336.5 669.5C273.627 683.18 242.591 721.438 179 714.5C91.763 704.982 0.5 578 0.5 578M524 645C438.28 628.012 431.735 501.132 349 473C305.499 458.209 230.664 466.316 193 440C130.753 396.507 146 228 146 228" stroke="black"/>
</svg>
