<svg width="45" height="45" viewBox="0 0 45 45" fill="none" xmlns="http://www.w3.org/2000/svg">
<path fill-rule="evenodd" clip-rule="evenodd" d="M9 36.6001C12.39 35.6301 19.11 37.0301 22.5 34.6001C25.89 37.0301 32.61 35.6301 36 36.6001C36 36.6001 37.65 37.1401 39 38.6001C38.32 39.5701 37.35 39.5901 36 39.1001C32.61 38.1301 25.89 39.5601 22.5 38.1001C19.11 39.5601 12.39 38.1301 9 39.1001C7.65 39.5901 6.68 39.5701 6 38.6001C7.35 37.1401 9 36.6001 9 36.6001Z" fill="white" stroke="black" stroke-width="1.5" stroke-linejoin="round"/>
<path fill-rule="evenodd" clip-rule="evenodd" d="M15 32.6001C17.5 35.1001 27.5 35.1001 30 32.6001C30.5 31.1001 30 30.6001 30 30.6001C30 28.1001 27.5 26.6001 27.5 26.6001C33 25.1001 33.5 15.1001 22.5 11.1001C11.5 15.1001 12 25.1001 17.5 26.6001C17.5 26.6001 15 28.1001 15 30.6001C15 30.6001 14.5 31.1001 15 32.6001Z" fill="white" stroke="black" stroke-width="1.5" stroke-linejoin="round"/>
<path fill-rule="evenodd" clip-rule="evenodd" d="M25 8.6001C25 9.26314 24.7366 9.89902 24.2678 10.3679C23.7989 10.8367 23.163 11.1001 22.5 11.1001C21.837 11.1001 21.2011 10.8367 20.7322 10.3679C20.2634 9.89902 20 9.26314 20 8.6001C20 7.93706 20.2634 7.30117 20.7322 6.83233C21.2011 6.36349 21.837 6.1001 22.5 6.1001C23.163 6.1001 23.7989 6.36349 24.2678 6.83233C24.7366 7.30117 25 7.93706 25 8.6001Z" fill="white" stroke="black" stroke-width="1.5" stroke-linejoin="round"/>
<path d="M17.5 26.6001H27.5M15 30.6001H30M22.5 16.1001V21.1001M20 18.6001H25" stroke="black" stroke-width="1.5" stroke-linecap="round"/>
</svg>
