<svg width="45" height="45" viewBox="0 0 45 45" fill="none" xmlns="http://www.w3.org/2000/svg">
<path fill-rule="evenodd" clip-rule="evenodd" d="M22 10.3C32.5 11.3 38.5 18.3 38 39.3H15C15 30.3 25 32.8 23 18.3" fill="white"/>
<path d="M22 10.3C32.5 11.3 38.5 18.3 38 39.3H15C15 30.3 25 32.8 23 18.3" stroke="black" stroke-width="1.5" stroke-linecap="round" stroke-linejoin="round"/>
<path fill-rule="evenodd" clip-rule="evenodd" d="M24 18.3C24.38 21.21 18.45 25.67 16 27.3C13 29.3 13.18 31.64 11 31.3C9.958 30.36 12.41 28.26 11 28.3C10 28.3 11.19 29.53 10 30.3C9 30.3 5.997 31.3 6 26.3C6 24.3 12 14.3 12 14.3C12 14.3 13.89 12.4 14 10.8C13.27 9.80605 13.5 8.80005 13.5 7.80005C14.5 6.80005 16.5 10.3 16.5 10.3H18.5C18.5 10.3 19.28 8.30805 21 7.30005C22 7.30005 22 10.3 22 10.3" fill="white"/>
<path d="M24 18.3C24.38 21.21 18.45 25.67 16 27.3C13 29.3 13.18 31.64 11 31.3C9.958 30.36 12.41 28.26 11 28.3C10 28.3 11.19 29.53 10 30.3C9 30.3 5.997 31.3 6 26.3C6 24.3 12 14.3 12 14.3C12 14.3 13.89 12.4 14 10.8C13.27 9.80605 13.5 8.80005 13.5 7.80005C14.5 6.80005 16.5 10.3 16.5 10.3H18.5C18.5 10.3 19.28 8.30805 21 7.30005C22 7.30005 22 10.3 22 10.3" stroke="black" stroke-width="1.5" stroke-linecap="round" stroke-linejoin="round"/>
<path fill-rule="evenodd" clip-rule="evenodd" d="M9.5 25.8C9.5 25.9327 9.44732 26.0598 9.35355 26.1536C9.25979 26.2474 9.13261 26.3 9 26.3C8.86739 26.3 8.74021 26.2474 8.64645 26.1536C8.55268 26.0598 8.5 25.9327 8.5 25.8C8.5 25.6674 8.55268 25.5403 8.64645 25.4465C8.74021 25.3527 8.86739 25.3 9 25.3C9.13261 25.3 9.25979 25.3527 9.35355 25.4465C9.44732 25.5403 9.5 25.6674 9.5 25.8Z" fill="black" stroke="black" stroke-width="1.5" stroke-linecap="round" stroke-linejoin="round"/>
<path fill-rule="evenodd" clip-rule="evenodd" d="M14.933 16.05C14.7341 16.3945 14.4977 16.6986 14.2759 16.8953C14.054 17.092 13.8649 17.1653 13.75 17.099C13.6352 17.0327 13.6041 16.8322 13.6635 16.5417C13.723 16.2512 13.8681 15.8945 14.067 15.55C14.2659 15.2055 14.5023 14.9014 14.7242 14.7047C14.946 14.5079 15.1352 14.4347 15.25 14.501C15.3649 14.5673 15.396 14.7677 15.3365 15.0582C15.2771 15.3487 15.1319 15.7055 14.933 16.05Z" fill="black" stroke="black" stroke-width="1.5" stroke-linecap="round" stroke-linejoin="round"/>
</svg>
