<svg width="45" height="45" viewBox="0 0 45 45" fill="none" xmlns="http://www.w3.org/2000/svg">
<path fill-rule="evenodd" clip-rule="evenodd" d="M9 39.3H36V36.3H9V39.3Z" fill="black" stroke="black" stroke-width="1.5" stroke-linejoin="round"/>
<path fill-rule="evenodd" clip-rule="evenodd" d="M12.5 32.3L14 29.8H31L32.5 32.3H12.5Z" fill="black" stroke="black" stroke-width="1.5" stroke-linejoin="round"/>
<path fill-rule="evenodd" clip-rule="evenodd" d="M12 36.3V32.3H33V36.3H12Z" fill="black" stroke="black" stroke-width="1.5" stroke-linejoin="round"/>
<path fill-rule="evenodd" clip-rule="evenodd" d="M14 29.8V16.8H31V29.8H14Z" fill="black" stroke="black" stroke-width="1.5"/>
<path fill-rule="evenodd" clip-rule="evenodd" d="M14 16.8L11 14.3H34L31 16.8H14Z" fill="black" stroke="black" stroke-width="1.5" stroke-linejoin="round"/>
<path fill-rule="evenodd" clip-rule="evenodd" d="M11 14.3V9.30005H15V11.3H20V9.30005H25V11.3H30V9.30005H34V14.3H11Z" fill="black" stroke="black" stroke-width="1.5" stroke-linejoin="round"/>
<path d="M12 35.8H33" stroke="white" stroke-linecap="round"/>
<path d="M13 31.8H32" stroke="white" stroke-linecap="round"/>
<path d="M14 29.8H31" stroke="white" stroke-linecap="round"/>
<path d="M14 16.8H31" stroke="white" stroke-linecap="round"/>
<path d="M11 14.3H34" stroke="white" stroke-linecap="round"/>
</svg>
